<svg width="70" height="69" viewBox="0 0 70 69" fill="none" xmlns="http://www.w3.org/2000/svg">
<path d="M35 6.03448V16.2931L25.3448 23.5345V30.7759" stroke="#3973B9" stroke-width="2"/>
<path d="M63.9655 35L53.7069 35L46.4655 25.3448L39.2241 25.3448" stroke="#3973B9" stroke-width="2"/>
<path d="M35 62.7586L35 52.5L44.6552 45.2586L44.6552 38.0172" stroke="#3973B9" stroke-width="2"/>
<path d="M6.03449 33.7931L16.2931 33.7931L23.5345 43.4483L30.7759 43.4483" stroke="#3973B9" stroke-width="2"/>
<path d="M41.0345 13.2758V19.9138L31.3793 27.7586V35" stroke="#3973B9" stroke-width="2"/>
<path d="M56.7241 41.0345L50.0862 41.0345L42.2414 31.3793L35 31.3793" stroke="#3973B9" stroke-width="2"/>
<path d="M28.9655 55.5172L28.9655 48.8793L38.6207 41.0345L38.6207 33.7931" stroke="#3973B9" stroke-width="2"/>
<path d="M13.2759 27.7586L19.9138 27.7586L27.7586 37.4138L35 37.4138" stroke="#3973B9" stroke-width="2"/>
<path d="M28.9655 10.8621V14.4828L19.3104 20.5172V25.3448" stroke="#3973B9" stroke-width="2"/>
<path d="M59.1379 28.9655L55.5172 28.9655L49.4828 19.3103L44.6552 19.3103" stroke="#3973B9" stroke-width="2"/>
<path d="M41.0345 57.931L41.0345 54.3103L50.6896 48.2759L50.6896 43.4483" stroke="#3973B9" stroke-width="2"/>
<path d="M10.8621 39.8276L14.4828 39.8276L20.5172 49.4828L25.3448 49.4828" stroke="#3973B9" stroke-width="2"/>
<circle cx="35" cy="3.62069" r="2.62069" stroke="#3973B9" stroke-width="2"/>
<circle cx="66.3793" cy="35" r="2.62069" transform="rotate(90 66.3793 35)" stroke="#3973B9" stroke-width="2"/>
<circle cx="35" cy="65.1724" r="2.62069" transform="rotate(-180 35 65.1724)" stroke="#3973B9" stroke-width="2"/>
<circle cx="3.62069" cy="33.7931" r="2.62069" transform="rotate(-90 3.62069 33.7931)" stroke="#3973B9" stroke-width="2"/>
<circle cx="41.0345" cy="10.8621" r="2.62069" stroke="#3973B9" stroke-width="2"/>
<circle cx="59.1379" cy="41.0345" r="2.62069" transform="rotate(90 59.1379 41.0345)" stroke="#3973B9" stroke-width="2"/>
<circle cx="28.9655" cy="57.931" r="2.62069" transform="rotate(-180 28.9655 57.931)" stroke="#3973B9" stroke-width="2"/>
<circle cx="10.8621" cy="27.7586" r="2.62069" transform="rotate(-90 10.8621 27.7586)" stroke="#3973B9" stroke-width="2"/>
<circle cx="28.9655" cy="9.65517" r="2.62069" stroke="#3973B9" stroke-width="2"/>
<circle cx="60.3448" cy="28.9655" r="2.62069" transform="rotate(90 60.3448 28.9655)" stroke="#3973B9" stroke-width="2"/>
<circle cx="41.0345" cy="59.1379" r="2.62069" transform="rotate(-180 41.0345 59.1379)" stroke="#3973B9" stroke-width="2"/>
<circle cx="9.65518" cy="39.8276" r="2.62069" transform="rotate(-90 9.65518 39.8276)" stroke="#3973B9" stroke-width="2"/>
</svg>
