<svg width="295" height="69" viewBox="0 0 295 69" fill="none" xmlns="http://www.w3.org/2000/svg">
    <path d="M35 6.03448V16.2931L25.3448 23.5345V30.7759" stroke="#3973B9" stroke-width="2"/>
    <path d="M63.9655 35H53.7069L46.4655 25.3448H39.2241" stroke="#3973B9" stroke-width="2"/>
    <path d="M35 62.7586V52.5L44.6552 45.2586V38.0172" stroke="#3973B9" stroke-width="2"/>
    <path d="M6.03448 33.7931H16.2931L23.5345 43.4483H30.7759" stroke="#3973B9" stroke-width="2"/>
    <path d="M41.0345 13.2759V19.9138L31.3793 27.7586V35" stroke="#3973B9" stroke-width="2"/>
    <path d="M56.7241 41.0345H50.0862L42.2414 31.3793H35" stroke="#3973B9" stroke-width="2"/>
    <path d="M28.9655 55.5172V48.8793L38.6207 41.0345V33.7931" stroke="#3973B9" stroke-width="2"/>
    <path d="M13.2758 27.7586H19.9138L27.7586 37.4138H35" stroke="#3973B9" stroke-width="2"/>
    <path d="M28.9655 10.8621V14.4828L19.3103 20.5172V25.3448" stroke="#3973B9" stroke-width="2"/>
    <path d="M59.1379 28.9655H55.5172L49.4828 19.3103H44.6552" stroke="#3973B9" stroke-width="2"/>
    <path d="M41.0345 57.931V54.3103L50.6897 48.2759V43.4483" stroke="#3973B9" stroke-width="2"/>
    <path d="M10.8621 39.8276H14.4828L20.5172 49.4828H25.3448" stroke="#3973B9" stroke-width="2"/>
    <path d="M35 6.24138C36.4474 6.24138 37.6207 5.06806 37.6207 3.62069C37.6207 2.17332 36.4474 1 35 1C33.5526 1 32.3793 2.17332 32.3793 3.62069C32.3793 5.06806 33.5526 6.24138 35 6.24138Z" stroke="#3973B9" stroke-width="2"/>
    <path d="M63.7586 35C63.7586 36.4474 64.9319 37.6207 66.3793 37.6207C67.8267 37.6207 69 36.4474 69 35C69 33.5526 67.8267 32.3793 66.3793 32.3793C64.9319 32.3793 63.7586 33.5526 63.7586 35Z" stroke="#3973B9" stroke-width="2"/>
    <path d="M35 62.5517C33.5526 62.5517 32.3793 63.725 32.3793 65.1724C32.3793 66.6198 33.5526 67.7931 35 67.7931C36.4474 67.7931 37.6207 66.6198 37.6207 65.1724C37.6207 63.725 36.4474 62.5517 35 62.5517Z" stroke="#3973B9" stroke-width="2"/>
    <path d="M6.24138 33.7931C6.24138 32.3457 5.06806 31.1724 3.62069 31.1724C2.17332 31.1724 1 32.3457 1 33.7931C1 35.2405 2.17332 36.4138 3.62069 36.4138C5.06806 36.4138 6.24138 35.2405 6.24138 33.7931Z" stroke="#3973B9" stroke-width="2"/>
    <path d="M41.0345 13.4828C42.4819 13.4828 43.6552 12.3095 43.6552 10.8621C43.6552 9.41473 42.4819 8.24141 41.0345 8.24141C39.5871 8.24141 38.4138 9.41473 38.4138 10.8621C38.4138 12.3095 39.5871 13.4828 41.0345 13.4828Z" stroke="#3973B9" stroke-width="2"/>
    <path d="M56.5172 41.0345C56.5172 42.4819 57.6905 43.6552 59.1379 43.6552C60.5853 43.6552 61.7586 42.4819 61.7586 41.0345C61.7586 39.5871 60.5853 38.4138 59.1379 38.4138C57.6905 38.4138 56.5172 39.5871 56.5172 41.0345Z" stroke="#3973B9" stroke-width="2"/>
    <path d="M28.9655 55.3103C27.5181 55.3103 26.3448 56.4836 26.3448 57.931C26.3448 59.3784 27.5181 60.5517 28.9655 60.5517C30.4129 60.5517 31.5862 59.3784 31.5862 57.931C31.5862 56.4836 30.4129 55.3103 28.9655 55.3103Z" stroke="#3973B9" stroke-width="2"/>
    <path d="M13.4828 27.7586C13.4828 26.3112 12.3095 25.1379 10.8621 25.1379C9.41475 25.1379 8.24142 26.3112 8.24142 27.7586C8.24142 29.206 9.41475 30.3793 10.8621 30.3793C12.3095 30.3793 13.4828 29.206 13.4828 27.7586Z" stroke="#3973B9" stroke-width="2"/>
    <path d="M28.9655 12.2759C30.4129 12.2759 31.5862 11.1025 31.5862 9.65517C31.5862 8.2078 30.4129 7.03448 28.9655 7.03448C27.5181 7.03448 26.3448 8.2078 26.3448 9.65517C26.3448 11.1025 27.5181 12.2759 28.9655 12.2759Z" stroke="#3973B9" stroke-width="2"/>
    <path d="M57.7241 28.9655C57.7241 30.4129 58.8974 31.5862 60.3448 31.5862C61.7922 31.5862 62.9655 30.4129 62.9655 28.9655C62.9655 27.5181 61.7922 26.3448 60.3448 26.3448C58.8974 26.3448 57.7241 27.5181 57.7241 28.9655Z" stroke="#3973B9" stroke-width="2"/>
    <path d="M41.0345 56.5172C39.5871 56.5172 38.4138 57.6905 38.4138 59.1379C38.4138 60.5853 39.5871 61.7586 41.0345 61.7586C42.4819 61.7586 43.6552 60.5853 43.6552 59.1379C43.6552 57.6905 42.4819 56.5172 41.0345 56.5172Z" stroke="#3973B9" stroke-width="2"/>
    <path d="M12.2759 39.8276C12.2759 38.3802 11.1025 37.2069 9.65517 37.2069C8.20781 37.2069 7.03448 38.3802 7.03448 39.8276C7.03448 41.275 8.20781 42.4483 9.65517 42.4483C11.1025 42.4483 12.2759 41.275 12.2759 39.8276Z" stroke="#3973B9" stroke-width="2"/>
    <path d="M87.1286 7.04233C87.076 6.51383 86.8502 6.10327 86.4512 5.81063C86.0522 5.51799 85.5108 5.37167 84.8268 5.37167C84.3621 5.37167 83.9697 5.43719 83.6496 5.56822C83.3296 5.69488 83.084 5.87178 82.913 6.0989C82.7464 6.32602 82.6631 6.58372 82.6631 6.87198C82.6544 7.11221 82.7048 7.32186 82.8144 7.50094C82.9284 7.68001 83.084 7.83507 83.2813 7.9661C83.4786 8.09276 83.7066 8.20414 83.9653 8.30023C84.224 8.39195 84.5002 8.47057 84.7939 8.53609L86.004 8.82436C86.5915 8.95539 87.1308 9.1301 87.6218 9.34848C88.1129 9.56687 88.5382 9.83548 88.8977 10.1543C89.2572 10.4732 89.5356 10.8488 89.7329 11.2812C89.9346 11.7136 90.0376 12.2093 90.042 12.7684C90.0376 13.5895 89.8272 14.3015 89.4107 14.9042C88.9985 15.5026 88.4023 15.9678 87.6218 16.2997C86.8458 16.6273 85.9097 16.7911 84.8137 16.7911C83.7263 16.7911 82.7793 16.6251 81.9726 16.2932C81.1703 15.9612 80.5433 15.4698 80.0917 14.8191C79.6445 14.1639 79.4099 13.3537 79.388 12.3884H82.1436C82.1743 12.8383 82.3036 13.2139 82.5316 13.5153C82.764 13.8123 83.0731 14.0372 83.4589 14.1901C83.8491 14.3386 84.2897 14.4129 84.7808 14.4129C85.2631 14.4129 85.6818 14.343 86.0369 14.2032C86.3964 14.0634 86.6748 13.8691 86.8721 13.6201C87.0694 13.3712 87.1681 13.0851 87.1681 12.7619C87.1681 12.4605 87.0782 12.2072 86.8984 12.0019C86.723 11.7966 86.4644 11.6219 86.1224 11.4777C85.7848 11.3336 85.3705 11.2026 84.8794 11.0847L83.4129 10.7178C82.2773 10.4426 81.3807 10.0124 80.7231 9.4271C80.0654 8.84183 79.7388 8.05345 79.7431 7.06198C79.7388 6.24958 79.9558 5.53983 80.3942 4.93272C80.837 4.3256 81.4443 3.85171 82.2159 3.51102C82.9876 3.17034 83.8644 3 84.8465 3C85.8462 3 86.7187 3.17034 87.464 3.51102C88.2137 3.85171 88.7968 4.3256 89.2134 4.93272C89.6299 5.53983 89.8447 6.24303 89.8579 7.04233H87.1286Z" fill="#3973B9"/>
    <path d="M91.9574 16.6011V3.18344H94.8051V8.71953H100.586V3.18344H103.427V16.6011H100.586V11.0584H94.8051V16.6011H91.9574Z" fill="#3973B9"/>
    <path d="M108.096 16.6011H105.045L109.694 3.18344H113.364L118.007 16.6011H114.956L111.582 6.24958H111.477L108.096 16.6011ZM107.906 11.3271H115.113V13.5415H107.906V11.3271Z" fill="#3973B9"/>
    <path d="M130.894 3.18344V16.6011H128.434L122.574 8.15609H122.476V16.6011H119.628V3.18344H122.127L127.941 11.6219H128.059V3.18344H130.894Z" fill="#3973B9"/>
    <path d="M142.178 7.52059C142.085 7.20175 141.956 6.92003 141.789 6.67544C141.623 6.42648 141.419 6.21683 141.178 6.04649C140.941 5.87178 140.669 5.73856 140.362 5.64684C140.06 5.55512 139.724 5.50926 139.356 5.50926C138.668 5.50926 138.063 5.6796 137.541 6.02028C137.024 6.36096 136.62 6.8567 136.331 7.50749C136.042 8.15391 135.897 8.94447 135.897 9.87916C135.897 10.8139 136.039 11.6088 136.324 12.2639C136.609 12.9191 137.013 13.4192 137.534 13.7642C138.056 14.1049 138.672 14.2753 139.382 14.2753C140.027 14.2753 140.577 14.1617 141.033 13.9346C141.494 13.7031 141.844 13.3777 142.085 12.9584C142.331 12.5391 142.454 12.0434 142.454 11.4712L143.032 11.5564H139.56V9.42055H145.196V11.1109C145.196 12.2901 144.946 13.3035 144.446 14.1508C143.947 14.9938 143.258 15.6446 142.381 16.1032C141.505 16.5574 140.5 16.7845 139.369 16.7845C138.107 16.7845 136.997 16.5072 136.042 15.9525C135.086 15.3934 134.34 14.6007 133.806 13.5743C133.275 12.5435 133.01 11.3205 133.01 9.90537C133.01 8.8178 133.168 7.84817 133.483 6.99646C133.803 6.14039 134.251 5.41535 134.825 4.82134C135.399 4.22733 136.068 3.77527 136.831 3.46516C137.594 3.15505 138.42 3 139.31 3C140.073 3 140.783 3.11138 141.441 3.33413C142.099 3.55252 142.682 3.86263 143.19 4.26446C143.703 4.66629 144.122 5.14455 144.446 5.69925C144.771 6.24958 144.979 6.8567 145.071 7.52059H142.178Z" fill="#3973B9"/>
    <path d="M147.335 16.6011V3.18344H150.183V8.71953H155.964V3.18344H158.805V16.6011H155.964V11.0584H150.183V16.6011H147.335Z" fill="#3973B9"/>
    <path d="M163.474 16.6011H160.422L165.072 3.18344H168.742L173.385 16.6011H170.333L166.96 6.24958H166.854L163.474 16.6011ZM163.283 11.3271H170.491V13.5415H163.283V11.3271Z" fill="#3973B9"/>
    <path d="M177.854 3.18344V16.6011H175.006V3.18344H177.854Z" fill="#3973B9"/>
    <path d="M82.8539 39.6626L79 26.245H82.1107L84.3401 35.5679H84.452L86.9116 26.245H89.5751L92.0281 35.5876H92.1465L94.3759 26.245H97.4866L93.6328 39.6626H90.8575L88.2926 30.8901H88.1874L85.6291 39.6626H82.8539Z" fill="#3973B9"/>
    <path d="M101.858 26.245V39.6626H99.0108V26.245H101.858Z" fill="#3973B9"/>
    <path d="M111.508 30.1039C111.455 29.5754 111.229 29.1648 110.83 28.8722C110.431 28.5796 109.89 28.4332 109.206 28.4332C108.741 28.4332 108.349 28.4988 108.029 28.6298C107.709 28.7565 107.463 28.9333 107.292 29.1605C107.126 29.3876 107.042 29.6453 107.042 29.9336C107.034 30.1738 107.084 30.3834 107.194 30.5625C107.308 30.7416 107.463 30.8966 107.661 31.0277C107.858 31.1543 108.086 31.2657 108.345 31.3618C108.603 31.4535 108.879 31.5321 109.173 31.5977L110.383 31.8859C110.971 32.017 111.51 32.1917 112.001 32.41C112.492 32.6284 112.917 32.897 113.277 33.2159C113.636 33.5347 113.915 33.9104 114.112 34.3428C114.314 34.7752 114.417 35.2709 114.421 35.83C114.417 36.6511 114.206 37.363 113.79 37.9658C113.378 38.5642 112.781 39.0293 112.001 39.3613C111.225 39.6889 110.289 39.8526 109.193 39.8526C108.106 39.8526 107.159 39.6867 106.352 39.3547C105.549 39.0228 104.923 38.5314 104.471 37.8806C104.024 37.2255 103.789 36.4152 103.767 35.45H106.523C106.554 35.8999 106.683 36.2755 106.911 36.5769C107.143 36.8739 107.452 37.0988 107.838 37.2517C108.228 37.4002 108.669 37.4744 109.16 37.4744C109.642 37.4744 110.061 37.4045 110.416 37.2648C110.776 37.125 111.054 36.9306 111.251 36.6817C111.449 36.4327 111.547 36.1466 111.547 35.8234C111.547 35.522 111.457 35.2687 111.278 35.0634C111.102 34.8582 110.844 34.6834 110.502 34.5393C110.164 34.3952 109.75 34.2641 109.259 34.1462L107.792 33.7793C106.657 33.5042 105.76 33.0739 105.102 32.4887C104.445 31.9034 104.118 31.115 104.122 30.1235C104.118 29.3112 104.335 28.6014 104.773 27.9943C105.216 27.3872 105.824 26.9133 106.595 26.5726C107.367 26.2319 108.244 26.0616 109.226 26.0616C110.225 26.0616 111.098 26.2319 111.843 26.5726C112.593 26.9133 113.176 27.3872 113.593 27.9943C114.009 28.6014 114.224 29.3046 114.237 30.1039H111.508Z" fill="#3973B9"/>
    <path d="M119.368 39.6626L115.515 26.245H118.625L120.855 35.5679H120.967L123.426 26.245H126.09L128.543 35.5876H128.661L130.891 26.245H134.001L130.147 39.6626H127.372L124.807 30.8901H124.702L122.144 39.6626H119.368Z" fill="#3973B9"/>
    <path d="M135.525 39.6626V26.245H144.601V28.5839H138.373V31.7811H144.134V34.12H138.373V37.3237H144.627V39.6626H135.525Z" fill="#3973B9"/>
    <path d="M149.186 39.6626H146.135L150.785 26.245H154.454L159.097 39.6626H156.046L152.672 29.3112H152.567L149.186 39.6626ZM148.996 34.3886H156.204V36.6031H148.996V34.3886Z" fill="#3973B9"/>
    <path d="M160.718 39.6626V26.245H163.566V37.3237H169.34V39.6626H160.718Z" fill="#3973B9"/>
    <path d="M169.031 28.5839V26.245H180.093V28.5839H175.969V39.6626H173.155V28.5839H169.031Z" fill="#3973B9"/>
    <path d="M181.915 39.6626V26.245H184.762V31.7811H190.543V26.245H193.384V39.6626H190.543V34.12H184.762V39.6626H181.915Z" fill="#3973B9"/>
    <path d="M79.3091 51.6455V49.3066H90.3708V51.6455H86.2473V62.7242H83.4326V51.6455H79.3091Z" fill="#3973B9"/>
    <path d="M92.1925 62.7242V49.3066H101.268V51.6455H95.0402V54.8427H100.801V57.1816H95.0402V60.3853H101.294V62.7242H92.1925Z" fill="#3973B9"/>
    <path d="M115.416 54.0041H112.535C112.483 53.6328 112.375 53.303 112.213 53.0148C112.051 52.7221 111.843 52.4732 111.588 52.2679C111.334 52.0626 111.04 51.9054 110.707 51.7962C110.378 51.687 110.021 51.6324 109.635 51.6324C108.938 51.6324 108.331 51.8049 107.813 52.15C107.296 52.4906 106.895 52.9886 106.61 53.6437C106.325 54.2945 106.182 55.0851 106.182 56.0154C106.182 56.9719 106.325 57.7756 106.61 58.4264C106.899 59.0772 107.303 59.5685 107.82 59.9005C108.337 60.2324 108.936 60.3984 109.615 60.3984C109.997 60.3984 110.35 60.3482 110.674 60.2477C111.003 60.1473 111.295 60.0009 111.549 59.8088C111.803 59.6122 112.014 59.3742 112.18 59.0946C112.351 58.8151 112.47 58.4963 112.535 58.1381L115.416 58.1512C115.341 58.7671 115.155 59.3611 114.857 59.9332C114.563 60.501 114.166 61.0099 113.667 61.4598C113.171 61.9053 112.579 62.2591 111.891 62.5211C111.207 62.7788 110.433 62.9077 109.569 62.9077C108.368 62.9077 107.294 62.6369 106.347 62.0953C105.404 61.5537 104.659 60.7697 104.111 59.7432C103.567 58.7168 103.295 57.4742 103.295 56.0154C103.295 54.5522 103.572 53.3074 104.124 52.281C104.676 51.2546 105.426 50.4728 106.373 49.9355C107.32 49.3939 108.386 49.1231 109.569 49.1231C110.35 49.1231 111.073 49.2323 111.74 49.4507C112.41 49.6691 113.005 49.9879 113.522 50.4072C114.039 50.8222 114.46 51.331 114.785 51.9338C115.113 52.5365 115.324 53.2266 115.416 54.0041Z" fill="#3973B9"/>
    <path d="M117.458 62.7242V49.3066H120.306V54.8427H126.086V49.3066H128.927V62.7242H126.086V57.1816H120.306V62.7242H117.458Z" fill="#3973B9"/>
    <path d="M142.541 49.3066V62.7242H140.081L134.222 54.2792H134.123V62.7242H131.275V49.3066H133.774L139.588 57.745H139.706V49.3066H142.541Z" fill="#3973B9"/>
    <path d="M157.271 56.0154C157.271 57.4786 156.992 58.7234 156.435 59.7498C155.883 60.7762 155.129 61.5602 154.173 62.1018C153.222 62.639 152.152 62.9077 150.964 62.9077C149.767 62.9077 148.693 62.6369 147.741 62.0953C146.79 61.5537 146.038 60.7697 145.486 59.7432C144.933 58.7168 144.657 57.4742 144.657 56.0154C144.657 54.5522 144.933 53.3074 145.486 52.281C146.038 51.2546 146.79 50.4728 147.741 49.9355C148.693 49.3939 149.767 49.1231 150.964 49.1231C152.152 49.1231 153.222 49.3939 154.173 49.9355C155.129 50.4728 155.883 51.2546 156.435 52.281C156.992 53.3074 157.271 54.5522 157.271 56.0154ZM154.384 56.0154C154.384 55.0676 154.241 54.2683 153.956 53.6175C153.675 52.9667 153.279 52.4732 152.766 52.1369C152.253 51.8005 151.652 51.6324 150.964 51.6324C150.275 51.6324 149.675 51.8005 149.162 52.1369C148.649 52.4732 148.25 52.9667 147.965 53.6175C147.684 54.2683 147.544 55.0676 147.544 56.0154C147.544 56.9632 147.684 57.7625 147.965 58.4133C148.25 59.0641 148.649 59.5576 149.162 59.8939C149.675 60.2302 150.275 60.3984 150.964 60.3984C151.652 60.3984 152.253 60.2302 152.766 59.8939C153.279 59.5576 153.675 59.0641 153.956 58.4133C154.241 57.7625 154.384 56.9632 154.384 56.0154Z" fill="#3973B9"/>
    <path d="M159.38 62.7242V49.3066H162.228V60.3853H168.002V62.7242H159.38Z" fill="#3973B9"/>
    <path d="M181.74 56.0154C181.74 57.4786 181.462 58.7234 180.905 59.7498C180.353 60.7762 179.599 61.5602 178.643 62.1018C177.691 62.639 176.622 62.9077 175.433 62.9077C174.236 62.9077 173.162 62.6369 172.211 62.0953C171.26 61.5537 170.508 60.7697 169.955 59.7432C169.403 58.7168 169.127 57.4742 169.127 56.0154C169.127 54.5522 169.403 53.3074 169.955 52.281C170.508 51.2546 171.26 50.4728 172.211 49.9355C173.162 49.3939 174.236 49.1231 175.433 49.1231C176.622 49.1231 177.691 49.3939 178.643 49.9355C179.599 50.4728 180.353 51.2546 180.905 52.281C181.462 53.3074 181.74 54.5522 181.74 56.0154ZM178.853 56.0154C178.853 55.0676 178.711 54.2683 178.426 53.6175C178.145 52.9667 177.748 52.4732 177.235 52.1369C176.722 51.8005 176.122 51.6324 175.433 51.6324C174.745 51.6324 174.144 51.8005 173.631 52.1369C173.118 52.4732 172.72 52.9667 172.435 53.6175C172.154 54.2683 172.014 55.0676 172.014 56.0154C172.014 56.9632 172.154 57.7625 172.435 58.4133C172.72 59.0641 173.118 59.5576 173.631 59.8939C174.144 60.2302 174.745 60.3984 175.433 60.3984C176.122 60.3984 176.722 60.2302 177.235 59.8939C177.748 59.5576 178.145 59.0641 178.426 58.4133C178.711 57.7625 178.853 56.9632 178.853 56.0154Z" fill="#3973B9"/>
    <path d="M192.781 53.6437C192.689 53.3249 192.559 53.0432 192.393 52.7986C192.226 52.5496 192.022 52.34 191.781 52.1696C191.544 51.9949 191.272 51.8617 190.966 51.77C190.663 51.6782 190.328 51.6324 189.959 51.6324C189.271 51.6324 188.666 51.8027 188.144 52.1434C187.627 52.4841 187.224 52.9798 186.934 53.6306C186.645 54.277 186.5 55.0676 186.5 56.0023C186.5 56.937 186.643 57.7319 186.928 58.3871C187.213 59.0422 187.616 59.5423 188.138 59.8874C188.659 60.2281 189.275 60.3984 189.986 60.3984C190.63 60.3984 191.18 60.2848 191.636 60.0577C192.097 59.8262 192.447 59.5008 192.689 59.0815C192.934 58.6622 193.057 58.1665 193.057 57.5943L193.636 57.6795H190.163V55.5437H195.799V57.234C195.799 58.4133 195.549 59.4266 195.05 60.2739C194.55 61.1169 193.861 61.7677 192.985 62.2263C192.108 62.6805 191.104 62.9077 189.972 62.9077C188.71 62.9077 187.601 62.6303 186.645 62.0756C185.689 61.5165 184.944 60.7238 184.409 59.6974C183.878 58.6666 183.613 57.4436 183.613 56.0285C183.613 54.9409 183.771 53.9713 184.086 53.1196C184.407 52.2635 184.854 51.5385 185.428 50.9445C186.002 50.3505 186.671 49.8984 187.434 49.5883C188.197 49.2782 189.023 49.1231 189.913 49.1231C190.676 49.1231 191.386 49.2345 192.044 49.4573C192.702 49.6756 193.285 49.9858 193.793 50.3876C194.306 50.7894 194.725 51.2677 195.05 51.8224C195.374 52.3727 195.582 52.9798 195.674 53.6437H192.781Z" fill="#3973B9"/>
    <path d="M196.607 49.3066H199.796L202.867 55.0851H202.999L206.07 49.3066H209.26L204.347 57.9809V62.7242H201.519V57.9809L196.607 49.3066Z" fill="#3973B9"/>
    <path d="M226.985 54.0041H224.105C224.052 53.6328 223.945 53.303 223.782 53.0148C223.62 52.7221 223.412 52.4732 223.158 52.2679C222.903 52.0626 222.61 51.9054 222.276 51.7962C221.948 51.687 221.59 51.6324 221.204 51.6324C220.507 51.6324 219.9 51.8049 219.383 52.15C218.865 52.4906 218.464 52.9886 218.179 53.6437C217.894 54.2945 217.752 55.0851 217.752 56.0154C217.752 56.9719 217.894 57.7756 218.179 58.4264C218.469 59.0772 218.872 59.5685 219.389 59.9005C219.907 60.2324 220.505 60.3984 221.185 60.3984C221.566 60.3984 221.919 60.3482 222.244 60.2477C222.572 60.1473 222.864 60.0009 223.118 59.8088C223.373 59.6122 223.583 59.3742 223.75 59.0946C223.921 58.8151 224.039 58.4963 224.105 58.1381L226.985 58.1512C226.911 58.7671 226.724 59.3611 226.426 59.9332C226.132 60.501 225.736 61.0099 225.236 61.4598C224.74 61.9053 224.149 62.2591 223.46 62.5211C222.776 62.7788 222.002 62.9077 221.139 62.9077C219.937 62.9077 218.863 62.6369 217.916 62.0953C216.974 61.5537 216.228 60.7697 215.68 59.7432C215.137 58.7168 214.865 57.4742 214.865 56.0154C214.865 54.5522 215.141 53.3074 215.693 52.281C216.246 51.2546 216.995 50.4728 217.943 49.9355C218.89 49.3939 219.955 49.1231 221.139 49.1231C221.919 49.1231 222.643 49.2323 223.309 49.4507C223.98 49.6691 224.574 49.9879 225.091 50.4072C225.609 50.8222 226.029 51.331 226.354 51.9338C226.683 52.5365 226.893 53.2266 226.985 54.0041Z" fill="#3973B9"/>
    <path d="M241.404 56.0154C241.404 57.4786 241.126 58.7234 240.569 59.7498C240.017 60.7762 239.263 61.5602 238.307 62.1018C237.355 62.639 236.286 62.9077 235.097 62.9077C233.9 62.9077 232.826 62.6369 231.875 62.0953C230.923 61.5537 230.172 60.7697 229.619 59.7432C229.067 58.7168 228.791 57.4742 228.791 56.0154C228.791 54.5522 229.067 53.3074 229.619 52.281C230.172 51.2546 230.923 50.4728 231.875 49.9355C232.826 49.3939 233.9 49.1231 235.097 49.1231C236.286 49.1231 237.355 49.3939 238.307 49.9355C239.263 50.4728 240.017 51.2546 240.569 52.281C241.126 53.3074 241.404 54.5522 241.404 56.0154ZM238.517 56.0154C238.517 55.0676 238.375 54.2683 238.09 53.6175C237.809 52.9667 237.412 52.4732 236.899 52.1369C236.386 51.8005 235.786 51.6324 235.097 51.6324C234.409 51.6324 233.808 51.8005 233.295 52.1369C232.782 52.4732 232.383 52.9667 232.099 53.6175C231.818 54.2683 231.678 55.0676 231.678 56.0154C231.678 56.9632 231.818 57.7625 232.099 58.4133C232.383 59.0641 232.782 59.5576 233.295 59.8939C233.808 60.2302 234.409 60.3984 235.097 60.3984C235.786 60.3984 236.386 60.2302 236.899 59.8939C237.412 59.5576 237.809 59.0641 238.09 58.4133C238.375 57.7625 238.517 56.9632 238.517 56.0154Z" fill="#3973B9"/>
    <path d="M244.249 62.8946C243.815 62.8946 243.442 62.7417 243.131 62.4359C242.824 62.1258 242.67 61.7546 242.67 61.3222C242.67 60.8941 242.824 60.5272 243.131 60.2215C243.442 59.9158 243.815 59.7629 244.249 59.7629C244.67 59.7629 245.038 59.9158 245.354 60.2215C245.669 60.5272 245.827 60.8941 245.827 61.3222C245.827 61.6104 245.752 61.8747 245.603 62.1149C245.459 62.3508 245.268 62.5408 245.031 62.6849C244.795 62.8247 244.534 62.8946 244.249 62.8946Z" fill="#3973B9"/>
    <path d="M251.172 60.8898L251.1 61.6104C251.043 62.187 250.933 62.7613 250.771 63.3335C250.613 63.91 250.447 64.432 250.271 64.8993C250.1 65.3667 249.962 65.7336 249.857 66H248.042C248.107 65.7423 248.197 65.382 248.311 64.919C248.425 64.4604 248.533 63.945 248.634 63.3728C248.734 62.8006 248.798 62.2176 248.824 61.6236L248.857 60.8898H251.172Z" fill="#3973B9"/>
    <path d="M257.44 62.7242V49.3066H260.287V60.3853H266.061V62.7242H257.44Z" fill="#3973B9"/>
    <path d="M265.752 51.6455V49.3066H276.814V51.6455H272.691V62.7242H269.876V51.6455H265.752Z" fill="#3973B9"/>
    <path d="M283.41 62.7242H278.636V49.3066H283.45C284.805 49.3066 285.971 49.5752 286.948 50.1124C287.926 50.6453 288.678 51.4118 289.204 52.412C289.735 53.4122 290 54.609 290 56.0023C290 57.4 289.735 58.6011 289.204 59.6057C288.678 60.6102 287.922 61.3811 286.935 61.9184C285.953 62.4556 284.778 62.7242 283.41 62.7242ZM281.483 60.2936H283.292C284.134 60.2936 284.842 60.1451 285.416 59.8481C285.995 59.5467 286.429 59.0815 286.718 58.4526C287.012 57.8193 287.159 57.0025 287.159 56.0023C287.159 55.0108 287.012 54.2006 286.718 53.5717C286.429 52.9427 285.997 52.4797 285.423 52.1827C284.848 51.8857 284.14 51.7372 283.299 51.7372H281.483V60.2936Z" fill="#3973B9"/>
    <path d="M292.579 63.1317C292.145 63.1317 291.772 62.9788 291.461 62.673C291.154 62.3629 291 61.9917 291 61.5593C291 61.1312 291.154 60.7643 291.461 60.4586C291.772 60.1529 292.145 60 292.579 60C293 60 293.368 60.1529 293.684 60.4586C293.999 60.7643 294.157 61.1312 294.157 61.5593C294.157 61.8475 294.082 62.1118 293.933 62.352C293.789 62.5879 293.598 62.7779 293.361 62.922C293.125 63.0618 292.864 63.1317 292.579 63.1317Z" fill="#3973B9"/>
</svg>
