<svg width="295" height="69" viewBox="0 0 295 69" fill="none" xmlns="http://www.w3.org/2000/svg">
    <path d="M252.42 62.8068L252.352 63.267C252.304 63.5909 252.23 63.9375 252.131 64.3068C252.034 64.6761 251.933 65.0241 251.828 65.3509C251.723 65.6776 251.636 65.9375 251.568 66.1307H250.801C250.838 65.9489 250.886 65.7088 250.946 65.4105C251.006 65.1122 251.065 64.7784 251.125 64.4091C251.188 64.0426 251.239 63.6676 251.278 63.2841L251.33 62.8068H252.42Z" fill="white"/>
    <path d="M87.3505 7.18351C87.2964 6.63656 87.0645 6.21165 86.6546 5.90879C86.2447 5.60593 85.6885 5.4545 84.9859 5.4545C84.5084 5.4545 84.1053 5.52231 83.7765 5.65792C83.4477 5.78901 83.1955 5.97208 83.0199 6.20713C82.8487 6.44218 82.7631 6.70888 82.7631 7.00722C82.7541 7.25583 82.8059 7.47281 82.9185 7.65814C83.0356 7.84347 83.1955 8.00394 83.3982 8.13954C83.6009 8.27063 83.8351 8.3859 84.1008 8.48535C84.3666 8.58027 84.6503 8.66164 84.9521 8.72944L86.1952 9.02778C86.7987 9.16339 87.3527 9.3442 87.8572 9.57021C88.3616 9.79622 88.7985 10.0742 89.1679 10.4042C89.5372 10.7342 89.8232 11.1229 90.0259 11.5704C90.2331 12.0179 90.3389 12.531 90.3434 13.1096C90.3389 13.9594 90.1227 14.6962 89.6948 15.32C89.2715 15.9393 88.6589 16.4207 87.8572 16.7642C87.06 17.1032 86.0984 17.2727 84.9724 17.2727C83.8554 17.2727 82.8825 17.101 82.0537 16.7574C81.2295 16.4139 80.5854 15.9054 80.1215 15.2318C79.6621 14.5538 79.4211 13.7153 79.3986 12.7163H82.2294C82.2609 13.1819 82.3938 13.5706 82.628 13.8825C82.8667 14.1899 83.1842 14.4227 83.5806 14.5809C83.9815 14.7346 84.4341 14.8115 84.9386 14.8115C85.434 14.8115 85.8641 14.7391 86.229 14.5945C86.5983 14.4498 86.8843 14.2487 87.087 13.991C87.2897 13.7334 87.391 13.4373 87.391 13.1028C87.391 12.7909 87.2987 12.5287 87.114 12.3163C86.9339 12.1038 86.6681 11.923 86.3168 11.7738C85.97 11.6247 85.5444 11.4891 85.0399 11.367L83.5333 10.9873C82.3668 10.7025 81.4457 10.2573 80.7701 9.65157C80.0945 9.04586 79.7589 8.22995 79.7634 7.20385C79.7589 6.36308 79.9819 5.62854 80.4323 5.00022C80.8872 4.3719 81.511 3.88145 82.3037 3.52887C83.0964 3.17629 83.9972 3 85.0061 3C86.0331 3 86.9294 3.17629 87.695 3.52887C88.4652 3.88145 89.0643 4.3719 89.4922 5.00022C89.92 5.62854 90.1407 6.3563 90.1542 7.18351H87.3505Z" fill="white"/>
    <path d="M92.3111 17.0761V3.18985H95.2365V8.91929H101.175V3.18985H104.094V17.0761H101.175V11.3399H95.2365V17.0761H92.3111Z" fill="white"/>
    <path d="M108.89 17.0761H105.756L110.532 3.18985H114.302L119.072 17.0761H115.937L112.471 6.36308H112.363L108.89 17.0761ZM108.695 11.6179H116.099V13.9097H108.695V11.6179Z" fill="white"/>
    <path d="M132.31 3.18985V17.0761H129.784L123.764 8.33618H123.663V17.0761H120.737V3.18985H123.305L129.277 11.923H129.398V3.18985H132.31Z" fill="white"/>
    <path d="M143.902 7.67848C143.807 7.3485 143.675 7.05694 143.503 6.80381C143.332 6.54615 143.123 6.32918 142.875 6.15289C142.632 5.97208 142.353 5.83421 142.037 5.73928C141.727 5.64436 141.382 5.59689 141.004 5.59689C140.297 5.59689 139.675 5.77318 139.139 6.12576C138.608 6.47835 138.193 6.9914 137.896 7.66492C137.599 8.33392 137.45 9.15208 137.45 10.1194C137.45 11.0868 137.596 11.9094 137.889 12.5875C138.182 13.2655 138.596 13.7831 139.132 14.1402C139.668 14.4928 140.301 14.6691 141.031 14.6691C141.693 14.6691 142.258 14.5515 142.726 14.3165C143.199 14.0769 143.56 13.7402 143.807 13.3062C144.06 12.8723 144.186 12.3592 144.186 11.7671L144.78 11.8552H141.213V9.64479H147.003V11.3941C147.003 12.6146 146.746 13.6633 146.233 14.5402C145.719 15.4127 145.012 16.0862 144.111 16.5608C143.211 17.0309 142.179 17.266 141.017 17.266C139.72 17.266 138.581 16.9789 137.599 16.4049C136.617 15.8263 135.851 15.0058 135.302 13.9436C134.757 12.8768 134.484 11.6111 134.484 10.1465C134.484 9.021 134.646 8.0175 134.971 7.13604C135.299 6.25007 135.759 5.49971 136.349 4.88495C136.939 4.27019 137.626 3.80235 138.409 3.48141C139.193 3.16047 140.042 3 140.956 3C141.74 3 142.47 3.11527 143.145 3.3458C143.821 3.57181 144.42 3.89275 144.942 4.30862C145.469 4.72448 145.9 5.21945 146.233 5.79353C146.566 6.36308 146.78 6.9914 146.875 7.67848H143.902Z" fill="white"/>
    <path d="M149.2 17.0761V3.18985H152.126V8.91929H158.064V3.18985H160.983V17.0761H158.064V11.3399H152.126V17.0761H149.2Z" fill="white"/>
    <path d="M165.78 17.0761H162.645L167.422 3.18985H171.191L175.961 17.0761H172.826L169.361 6.36308H169.252L165.78 17.0761ZM165.584 11.6179H172.989V13.9097H165.584V11.6179Z" fill="white"/>
    <path d="M180.552 3.18985V17.0761H177.627V3.18985H180.552Z" fill="white"/>
    <path d="M82.959 40.9431L79 27.0569H82.1956L84.4859 36.7054H84.6008L87.1275 27.0569H89.8637L92.3837 36.7257H92.5054L94.7957 27.0569H97.9913L94.0322 40.9431H91.1812L88.5463 31.8642H88.4382L85.8101 40.9431H82.959Z" fill="white"/>
    <path d="M102.482 27.0569V40.9431H99.557V27.0569H102.482Z" fill="white"/>
    <path d="M112.395 31.0505C112.341 30.5036 112.109 30.0787 111.699 29.7758C111.289 29.4729 110.733 29.3215 110.031 29.3215C109.553 29.3215 109.15 29.3893 108.821 29.5249C108.492 29.656 108.24 29.8391 108.065 30.0741C107.893 30.3092 107.808 30.5759 107.808 30.8742C107.799 31.1228 107.851 31.3398 107.963 31.5252C108.08 31.7105 108.24 31.871 108.443 32.0066C108.646 32.1376 108.88 32.2529 109.146 32.3524C109.411 32.4473 109.695 32.5287 109.997 32.5965L111.24 32.8948C111.843 33.0304 112.397 33.2112 112.902 33.4372C113.406 33.6632 113.843 33.9412 114.213 34.2712C114.582 34.6012 114.868 34.9899 115.071 35.4374C115.278 35.8849 115.384 36.398 115.388 36.9766C115.384 37.8264 115.167 38.5632 114.74 39.187C114.316 39.8063 113.704 40.2877 112.902 40.6312C112.105 40.9703 111.143 41.1398 110.017 41.1398C108.9 41.1398 107.927 40.968 107.098 40.6245C106.274 40.2809 105.63 39.7724 105.166 39.0989C104.707 38.4208 104.466 37.5823 104.443 36.5833H107.274C107.306 37.0489 107.438 37.4377 107.673 37.7496C107.911 38.0569 108.229 38.2897 108.625 38.4479C109.026 38.6016 109.479 38.6785 109.983 38.6785C110.479 38.6785 110.909 38.6062 111.274 38.4615C111.643 38.3169 111.929 38.1157 112.132 37.858C112.334 37.6004 112.436 37.3043 112.436 36.9698C112.436 36.6579 112.343 36.3957 112.159 36.1833C111.979 35.9708 111.713 35.79 111.361 35.6409C111.015 35.4917 110.589 35.3561 110.085 35.234L108.578 34.8543C107.411 34.5696 106.49 34.1243 105.815 33.5186C105.139 32.9129 104.804 32.097 104.808 31.0709C104.804 30.2301 105.027 29.4956 105.477 28.8672C105.932 28.2389 106.556 27.7485 107.348 27.3959C108.141 27.0433 109.042 26.867 110.051 26.867C111.078 26.867 111.974 27.0433 112.74 27.3959C113.51 27.7485 114.109 28.2389 114.537 28.8672C114.965 29.4956 115.185 30.2233 115.199 31.0505H112.395Z" fill="white"/>
    <path d="M120.47 40.9431L116.511 27.0569H119.707L121.997 36.7054H122.112L124.639 27.0569H127.375L129.895 36.7257H130.017L132.307 27.0569H135.503L131.544 40.9431H128.692L126.058 31.8642H125.95L123.321 40.9431H120.47Z" fill="white"/>
    <path d="M137.068 40.9431V27.0569H146.392V29.4775H139.994V32.7863H145.912V35.2069H139.994V38.5225H146.419V40.9431H137.068Z" fill="white"/>
    <path d="M151.102 40.9431H147.967L152.744 27.0569H156.514L161.284 40.9431H158.149L154.683 30.2301H154.575L151.102 40.9431ZM150.906 35.4849H158.311V37.7767H150.906V35.4849Z" fill="white"/>
    <path d="M162.949 40.9431V27.0569H165.874V38.5225H171.806V40.9431H162.949Z" fill="white"/>
    <path d="M171.489 29.4775V27.0569H182.852V29.4775H178.616V40.9431H175.725V29.4775H171.489Z" fill="white"/>
    <path d="M184.724 40.9431V27.0569H187.649V32.7863H193.588V27.0569H196.506V40.9431H193.588V35.2069H187.649V40.9431H184.724Z" fill="white"/>
    <path d="M79.3175 53.3445V50.9239H90.6812V53.3445H86.4452V64.8101H83.5536V53.3445H79.3175Z" fill="white"/>
    <path d="M92.5526 64.8101V50.9239H101.876V53.3445H95.478V56.6533H101.396V59.0739H95.478V62.3895H101.903V64.8101H92.5526Z" fill="white"/>
    <path d="M116.41 55.7854H113.451C113.397 55.4012 113.286 55.0599 113.12 54.7616C112.953 54.4587 112.739 54.2011 112.478 53.9886C112.217 53.7762 111.915 53.6134 111.573 53.5004C111.235 53.3874 110.868 53.3309 110.471 53.3309C109.755 53.3309 109.131 53.5095 108.6 53.8666C108.068 54.2192 107.656 54.7345 107.364 55.4125C107.071 56.086 106.924 56.9042 106.924 57.867C106.924 58.857 107.071 59.6887 107.364 60.3622C107.661 61.0357 108.075 61.5443 108.607 61.8878C109.138 62.2313 109.753 62.4031 110.451 62.4031C110.843 62.4031 111.206 62.3511 111.539 62.2472C111.877 62.1432 112.176 61.9918 112.437 61.7929C112.699 61.5895 112.915 61.3431 113.086 61.0538C113.262 60.7645 113.383 60.4345 113.451 60.0639L116.41 60.0774C116.333 60.7148 116.142 61.3295 115.836 61.9217C115.534 62.5093 115.126 63.0359 114.613 63.5015C114.104 63.9626 113.496 64.3287 112.789 64.6C112.086 64.8666 111.291 65 110.404 65C109.17 65 108.066 64.7197 107.093 64.1592C106.125 63.5987 105.359 62.7873 104.796 61.7251C104.238 60.6628 103.959 59.3768 103.959 57.867C103.959 56.3527 104.242 55.0644 104.81 54.0022C105.377 52.9399 106.148 52.1308 107.12 51.5748C108.093 51.0143 109.188 50.734 110.404 50.734C111.206 50.734 111.949 50.847 112.633 51.0731C113.322 51.2991 113.933 51.629 114.464 52.063C114.996 52.4924 115.428 53.019 115.761 53.6428C116.099 54.2666 116.315 54.9808 116.41 55.7854Z" fill="white"/>
    <path d="M118.508 64.8101V50.9239H121.433V56.6533H127.372V50.9239H130.29V64.8101H127.372V59.0739H121.433V64.8101H118.508Z" fill="white"/>
    <path d="M144.275 50.9239V64.8101H141.749L135.729 56.0702H135.628V64.8101H132.702V50.9239H135.269L141.242 59.657H141.363V50.9239H144.275Z" fill="white"/>
    <path d="M159.407 57.867C159.407 59.3813 159.121 60.6696 158.549 61.7318C157.982 62.7941 157.207 63.6055 156.225 64.166C155.248 64.722 154.149 65 152.928 65C151.699 65 150.595 64.7197 149.618 64.1592C148.64 63.5987 147.868 62.7873 147.3 61.7251C146.733 60.6628 146.449 59.3768 146.449 57.867C146.449 56.3527 146.733 55.0644 147.3 54.0022C147.868 52.9399 148.64 52.1308 149.618 51.5748C150.595 51.0143 151.699 50.734 152.928 50.734C154.149 50.734 155.248 51.0143 156.225 51.5748C157.207 52.1308 157.982 52.9399 158.549 54.0022C159.121 55.0644 159.407 56.3527 159.407 57.867ZM156.441 57.867C156.441 56.8861 156.295 56.0589 156.002 55.3854C155.714 54.7119 155.306 54.2011 154.779 53.853C154.252 53.505 153.635 53.3309 152.928 53.3309C152.221 53.3309 151.604 53.505 151.077 53.853C150.55 54.2011 150.14 54.7119 149.847 55.3854C149.559 56.0589 149.415 56.8861 149.415 57.867C149.415 58.8479 149.559 59.6751 149.847 60.3486C150.14 61.0222 150.55 61.533 151.077 61.881C151.604 62.2291 152.221 62.4031 152.928 62.4031C153.635 62.4031 154.252 62.2291 154.779 61.881C155.306 61.533 155.714 61.0222 156.002 60.3486C156.295 59.6751 156.441 58.8479 156.441 57.867Z" fill="white"/>
    <path d="M161.574 64.8101V50.9239H164.5V62.3895H170.431V64.8101H161.574Z" fill="white"/>
    <path d="M184.545 57.867C184.545 59.3813 184.259 60.6696 183.687 61.7318C183.119 62.7941 182.345 63.6055 181.363 64.166C180.385 64.722 179.286 65 178.066 65C176.836 65 175.733 64.7197 174.755 64.1592C173.778 63.5987 173.005 62.7873 172.438 61.7251C171.87 60.6628 171.587 59.3768 171.587 57.867C171.587 56.3527 171.87 55.0644 172.438 54.0022C173.005 52.9399 173.778 52.1308 174.755 51.5748C175.733 51.0143 176.836 50.734 178.066 50.734C179.286 50.734 180.385 51.0143 181.363 51.5748C182.345 52.1308 183.119 52.9399 183.687 54.0022C184.259 55.0644 184.545 56.3527 184.545 57.867ZM181.579 57.867C181.579 56.8861 181.432 56.0589 181.14 55.3854C180.851 54.7119 180.444 54.2011 179.917 53.853C179.39 53.505 178.773 53.3309 178.066 53.3309C177.359 53.3309 176.742 53.505 176.215 53.853C175.688 54.2011 175.278 54.7119 174.985 55.3854C174.697 56.0589 174.553 56.8861 174.553 57.867C174.553 58.8479 174.697 59.6751 174.985 60.3486C175.278 61.0222 175.688 61.533 176.215 61.881C176.742 62.2291 177.359 62.4031 178.066 62.4031C178.773 62.4031 179.39 62.2291 179.917 61.881C180.444 61.533 180.851 61.0222 181.14 60.3486C181.432 59.6751 181.579 58.8479 181.579 57.867Z" fill="white"/>
    <path d="M195.886 55.4125C195.792 55.0825 195.659 54.791 195.488 54.5378C195.317 54.2802 195.107 54.0632 194.86 53.8869C194.616 53.7061 194.337 53.5682 194.022 53.4733C193.711 53.3784 193.366 53.3309 192.988 53.3309C192.281 53.3309 191.659 53.5072 191.123 53.8598C190.592 54.2124 190.178 54.7254 189.88 55.3989C189.583 56.0679 189.434 56.8861 189.434 57.8535C189.434 58.8208 189.581 59.6435 189.874 60.3215C190.166 60.9996 190.581 61.5171 191.117 61.8742C191.653 62.2268 192.285 62.4031 193.015 62.4031C193.677 62.4031 194.243 62.2856 194.711 62.0505C195.184 61.8109 195.544 61.4742 195.792 61.0402C196.044 60.6063 196.17 60.0932 196.17 59.5011L196.765 59.5892H193.198V57.3788H198.988V59.1282C198.988 60.3486 198.731 61.3973 198.217 62.2743C197.704 63.1467 196.997 63.8202 196.096 64.2948C195.195 64.7649 194.164 65 193.002 65C191.704 65 190.565 64.713 189.583 64.1389C188.601 63.5603 187.836 62.7399 187.286 61.6776C186.741 60.6108 186.469 59.3451 186.469 57.8806C186.469 56.755 186.631 55.7515 186.955 54.8701C187.284 53.9841 187.743 53.2337 188.333 52.619C188.923 52.0042 189.61 51.5364 190.394 51.2154C191.178 50.8945 192.027 50.734 192.941 50.734C193.725 50.734 194.454 50.8493 195.13 51.0798C195.805 51.3058 196.404 51.6268 196.927 52.0426C197.454 52.4585 197.884 52.9535 198.217 53.5276C198.551 54.0971 198.765 54.7254 198.859 55.4125H195.886Z" fill="white"/>
    <path d="M199.817 50.9239H203.093L206.249 56.9042H206.384L209.539 50.9239H212.815L207.769 59.9011V64.8101H204.864V59.9011L199.817 50.9239Z" fill="white"/>
    <path d="M231.025 55.7854H228.066C228.012 55.4012 227.901 55.0599 227.735 54.7616C227.568 54.4587 227.354 54.2011 227.093 53.9886C226.831 53.7762 226.53 53.6134 226.187 53.5004C225.85 53.3874 225.482 53.3309 225.086 53.3309C224.37 53.3309 223.746 53.5095 223.215 53.8666C222.683 54.2192 222.271 54.7345 221.978 55.4125C221.686 56.086 221.539 56.9042 221.539 57.867C221.539 58.857 221.686 59.6887 221.978 60.3622C222.276 61.0357 222.69 61.5443 223.221 61.8878C223.753 62.2313 224.368 62.4031 225.066 62.4031C225.458 62.4031 225.82 62.3511 226.154 62.2472C226.491 62.1432 226.791 61.9918 227.052 61.7929C227.313 61.5895 227.53 61.3431 227.701 61.0538C227.876 60.7645 227.998 60.4345 228.066 60.0639L231.025 60.0774C230.948 60.7148 230.757 61.3295 230.45 61.9217C230.149 62.5093 229.741 63.0359 229.228 63.5015C228.719 63.9626 228.111 64.3287 227.403 64.6C226.701 64.8666 225.906 65 225.019 65C223.784 65 222.681 64.7197 221.708 64.1592C220.74 63.5987 219.974 62.7873 219.411 61.7251C218.853 60.6628 218.573 59.3768 218.573 57.867C218.573 56.3527 218.857 55.0644 219.425 54.0022C219.992 52.9399 220.762 52.1308 221.735 51.5748C222.708 51.0143 223.802 50.734 225.019 50.734C225.82 50.734 226.563 50.847 227.248 51.0731C227.937 51.2991 228.547 51.629 229.079 52.063C229.61 52.4924 230.043 53.019 230.376 53.6428C230.714 54.2666 230.93 54.9808 231.025 55.7854Z" fill="white"/>
    <path d="M245.837 57.867C245.837 59.3813 245.551 60.6696 244.979 61.7318C244.412 62.7941 243.637 63.6055 242.655 64.166C241.678 64.722 240.579 65 239.358 65C238.129 65 237.025 64.7197 236.048 64.1592C235.07 63.5987 234.298 62.7873 233.73 61.7251C233.163 60.6628 232.879 59.3768 232.879 57.867C232.879 56.3527 233.163 55.0644 233.73 54.0022C234.298 52.9399 235.07 52.1308 236.048 51.5748C237.025 51.0143 238.129 50.734 239.358 50.734C240.579 50.734 241.678 51.0143 242.655 51.5748C243.637 52.1308 244.412 52.9399 244.979 54.0022C245.551 55.0644 245.837 56.3527 245.837 57.867ZM242.871 57.867C242.871 56.8861 242.725 56.0589 242.432 55.3854C242.144 54.7119 241.736 54.2011 241.209 53.853C240.682 53.505 240.065 53.3309 239.358 53.3309C238.651 53.3309 238.034 53.505 237.507 53.853C236.98 54.2011 236.57 54.7119 236.278 55.3854C235.989 56.0589 235.845 56.8861 235.845 57.867C235.845 58.8479 235.989 59.6751 236.278 60.3486C236.57 61.0222 236.98 61.533 237.507 61.881C238.034 62.2291 238.651 62.4031 239.358 62.4031C240.065 62.4031 240.682 62.2291 241.209 61.881C241.736 61.533 242.144 61.0222 242.432 60.3486C242.725 59.6751 242.871 58.8479 242.871 57.867Z" fill="white"/>
    <path d="M292.439 65C291.993 65 291.61 64.8418 291.291 64.5254C290.975 64.2044 290.818 63.8202 290.818 63.3727C290.818 62.9297 290.975 62.55 291.291 62.2336C291.61 61.9172 291.993 61.759 292.439 61.759C292.872 61.759 293.25 61.9172 293.574 62.2336C293.898 62.55 294.061 62.9297 294.061 63.3727C294.061 63.671 293.984 63.9445 293.831 64.1931C293.682 64.4372 293.486 64.6339 293.243 64.783C293 64.9277 292.732 65 292.439 65Z" fill="white"/>
    <path d="M256.551 64.8101V50.9239H259.476V62.3895H265.408V64.8101H256.551Z" fill="white"/>
    <path d="M265.09 53.3445V50.9239H276.454V53.3445H272.218V64.8101H269.326V53.3445H265.09Z" fill="white"/>
    <path d="M283.23 64.8101H278.326V50.9239H283.271C284.663 50.9239 285.861 51.2019 286.865 51.7579C287.87 52.3093 288.642 53.1027 289.183 54.1378C289.728 55.1729 290 56.4115 290 57.8535C290 59.2999 289.728 60.543 289.183 61.5827C288.642 62.6223 287.865 63.4202 286.852 63.9762C285.843 64.5322 284.636 64.8101 283.23 64.8101ZM281.251 62.2946H283.109C283.974 62.2946 284.701 62.1409 285.291 61.8335C285.886 61.5217 286.331 61.0402 286.629 60.3893C286.931 59.7339 287.081 58.8886 287.081 57.8535C287.081 56.8274 286.931 55.9888 286.629 55.3379C286.331 54.687 285.888 54.2079 285.298 53.9005C284.708 53.5931 283.98 53.4394 283.116 53.4394H281.251V62.2946Z" fill="white"/>
    <path d="M248.121 65C247.676 65 247.293 64.8418 246.973 64.5254C246.658 64.2044 246.5 63.8202 246.5 63.3727C246.5 62.9297 246.658 62.55 246.973 62.2336C247.293 61.9172 247.676 61.759 248.121 61.759C248.554 61.759 248.932 61.9172 249.256 62.2336C249.581 62.55 249.743 62.9297 249.743 63.3727C249.743 63.671 249.666 63.9445 249.513 64.1931C249.365 64.4372 249.169 64.6339 248.925 64.783C248.682 64.9277 248.414 65 248.121 65Z" fill="white"/>
    <path d="M35 6.03448V16.2931L25.3448 23.5345V30.7759" stroke="white" stroke-width="2"/>
    <path d="M63.9655 35L53.7069 35L46.4655 25.3448L39.2241 25.3448" stroke="white" stroke-width="2"/>
    <path d="M35 62.7586L35 52.5L44.6552 45.2586L44.6552 38.0172" stroke="white" stroke-width="2"/>
    <path d="M6.03449 33.7931L16.2931 33.7931L23.5345 43.4483L30.7759 43.4483" stroke="white" stroke-width="2"/>
    <path d="M41.0345 13.2759V19.9138L31.3793 27.7586V35" stroke="white" stroke-width="2"/>
    <path d="M56.7241 41.0345L50.0862 41.0345L42.2414 31.3793L35 31.3793" stroke="white" stroke-width="2"/>
    <path d="M28.9655 55.5172L28.9655 48.8793L38.6207 41.0345L38.6207 33.7931" stroke="white" stroke-width="2"/>
    <path d="M13.2759 27.7586L19.9138 27.7586L27.7586 37.4138L35 37.4138" stroke="white" stroke-width="2"/>
    <path d="M28.9655 10.8621V14.4828L19.3103 20.5172V25.3448" stroke="white" stroke-width="2"/>
    <path d="M59.1379 28.9655L55.5172 28.9655L49.4828 19.3103L44.6552 19.3103" stroke="white" stroke-width="2"/>
    <path d="M41.0345 57.931L41.0345 54.3103L50.6897 48.2759L50.6897 43.4483" stroke="white" stroke-width="2"/>
    <path d="M10.8621 39.8276L14.4828 39.8276L20.5172 49.4828L25.3448 49.4828" stroke="white" stroke-width="2"/>
    <circle cx="35" cy="3.62069" r="2.62069" stroke="white" stroke-width="2"/>
    <circle cx="66.3793" cy="35" r="2.62069" transform="rotate(90 66.3793 35)" stroke="white" stroke-width="2"/>
    <circle cx="35" cy="65.1724" r="2.62069" transform="rotate(-180 35 65.1724)" stroke="white" stroke-width="2"/>
    <circle cx="3.62069" cy="33.7931" r="2.62069" transform="rotate(-90 3.62069 33.7931)" stroke="white" stroke-width="2"/>
    <circle cx="41.0345" cy="10.8621" r="2.62069" stroke="white" stroke-width="2"/>
    <circle cx="59.1379" cy="41.0345" r="2.62069" transform="rotate(90 59.1379 41.0345)" stroke="white" stroke-width="2"/>
    <circle cx="28.9655" cy="57.931" r="2.62069" transform="rotate(-180 28.9655 57.931)" stroke="white" stroke-width="2"/>
    <circle cx="10.8621" cy="27.7586" r="2.62069" transform="rotate(-90 10.8621 27.7586)" stroke="white" stroke-width="2"/>
    <circle cx="28.9655" cy="9.65517" r="2.62069" stroke="white" stroke-width="2"/>
    <circle cx="60.3448" cy="28.9655" r="2.62069" transform="rotate(90 60.3448 28.9655)" stroke="white" stroke-width="2"/>
    <circle cx="41.0345" cy="59.1379" r="2.62069" transform="rotate(-180 41.0345 59.1379)" stroke="white" stroke-width="2"/>
    <circle cx="9.65518" cy="39.8276" r="2.62069" transform="rotate(-90 9.65518 39.8276)" stroke="white" stroke-width="2"/>
</svg>
